<svg version="1.0" xmlns="http://www.w3.org/2000/svg"
 width="1440.000000pt" height="1440.000000pt" viewBox="0 0 1440.000000 1440.000000"
 preserveAspectRatio="xMidYMid meet">

<g transform="translate(0.000000,1440.000000) scale(0.100000,-0.100000)"
fill="#000000" stroke="none">
<path d="M0 7200 l0 -7200 3575 0 c3398 0 3575 1 3575 18 0 9 10 91 21 182 11
91 24 215 29 275 4 61 13 144 19 185 30 218 61 704 64 1022 2 146 -1 180 -13
192 -11 11 -59 18 -180 25 -399 26 -479 32 -545 41 -38 6 -133 19 -210 30
-158 22 -391 70 -510 106 -287 86 -534 170 -595 203 -19 11 -60 29 -90 41 -87
34 -545 264 -655 330 -55 32 -140 82 -190 110 -49 28 -104 61 -122 73 -17 12
-51 33 -74 47 -173 102 -493 333 -753 544 -115 93 -162 132 -244 202 -20 18
-86 74 -147 125 -114 97 -408 386 -482 474 -182 215 -195 232 -308 395 -13 19
-32 46 -42 60 -18 25 -153 259 -153 265 0 2 -30 66 -66 142 -36 76 -69 147
-74 158 -5 11 -20 46 -34 77 -14 31 -26 60 -26 65 0 4 -11 28 -24 53 -13 25
-29 63 -36 85 -7 22 -18 54 -25 70 -46 104 -114 302 -165 480 -16 55 -43 147
-60 205 -55 193 -99 364 -115 455 -8 50 -22 119 -30 155 -8 36 -17 97 -20 135
-3 39 -12 108 -20 155 -73 438 -77 1315 -10 1795 37 262 88 518 141 710 14 50
34 124 45 165 22 83 71 238 100 315 56 151 92 242 103 260 6 11 25 52 41 90
16 39 53 114 82 168 29 54 53 100 53 103 0 9 179 273 229 339 182 238 573 639
742 761 16 11 40 32 53 45 14 13 45 40 71 59 25 19 63 49 83 65 20 17 55 43
77 57 22 15 63 43 90 63 96 68 339 225 350 225 1 0 32 18 66 40 35 22 73 44
85 49 11 5 58 30 103 55 46 25 120 62 165 82 44 20 104 48 131 61 55 27 271
112 380 150 39 13 84 28 100 34 17 6 46 14 65 19 19 4 89 23 155 42 183 54
247 69 490 118 543 109 1311 160 1576 105 101 -22 186 -19 297 10 246 63 687
84 972 45 135 -18 410 -79 448 -100 9 -5 37 -16 62 -24 81 -27 117 -41 131
-52 8 -6 48 -26 89 -44 41 -17 82 -36 90 -41 8 -5 35 -19 60 -32 25 -13 86
-48 135 -77 50 -30 117 -69 150 -87 55 -31 94 -55 171 -107 16 -11 54 -35 84
-55 53 -35 244 -171 325 -232 22 -16 71 -58 110 -92 38 -34 80 -71 94 -82 35
-28 185 -179 258 -261 63 -70 111 -127 193 -230 25 -31 53 -63 63 -72 10 -10
27 -33 37 -52 10 -19 28 -44 39 -54 12 -11 32 -37 43 -58 12 -21 25 -38 29
-38 4 0 18 -17 30 -37 13 -21 30 -45 39 -54 8 -10 31 -41 50 -69 19 -29 62
-89 95 -133 33 -45 78 -108 100 -140 44 -65 83 -121 133 -190 17 -25 32 -50
32 -54 0 -5 14 -28 31 -51 33 -45 93 -145 185 -307 31 -55 64 -111 73 -125 22
-32 131 -245 167 -325 14 -33 35 -80 46 -105 48 -107 128 -332 128 -358 0 -10
9 -34 20 -55 11 -20 20 -47 20 -59 0 -13 7 -45 16 -73 8 -27 19 -70 25 -95 5
-25 18 -83 29 -130 104 -443 171 -854 200 -1237 14 -182 15 -902 1 -1098 -6
-82 -18 -256 -26 -385 -9 -129 -20 -260 -25 -290 -5 -30 -12 -84 -15 -120 -9
-90 -70 -373 -114 -530 -46 -161 -59 -199 -102 -305 -16 -38 -29 -76 -29 -83
0 -7 -31 -86 -69 -175 -37 -89 -72 -173 -76 -187 -12 -39 -170 -361 -197 -400
-13 -19 -45 -71 -72 -115 -27 -44 -88 -137 -135 -208 -47 -70 -93 -138 -101
-151 -8 -13 -34 -50 -58 -82 -23 -33 -58 -81 -77 -109 -172 -246 -612 -716
-815 -871 -118 -89 -356 -249 -393 -263 -13 -5 -48 -25 -78 -44 -30 -19 -65
-38 -79 -42 -14 -4 -45 -18 -70 -30 -79 -41 -183 -83 -270 -110 -47 -15 -107
-36 -135 -46 -126 -47 -565 -146 -835 -189 -41 -6 -100 -15 -130 -20 -30 -5
-118 -16 -194 -25 -76 -9 -147 -20 -157 -26 -25 -13 -27 -37 -33 -364 -3 -159
-10 -351 -16 -425 -29 -367 -41 -506 -55 -625 -9 -72 -22 -188 -29 -260 -8
-72 -18 -156 -22 -187 l-7 -58 3337 0 3336 0 0 7200 0 7200 -7200 0 -7200 0 0
-7200z"/>
<path d="M7640 12655 c-8 -2 -69 -9 -135 -15 -134 -13 -224 -30 -335 -61 -41
-12 -102 -28 -135 -36 -153 -38 -350 -114 -593 -227 -132 -62 -198 -80 -257
-70 -50 8 -124 47 -165 87 -39 39 -80 117 -80 154 0 16 -7 39 -16 51 -18 25
-29 26 -229 1 -130 -16 -583 -109 -702 -143 -26 -8 -91 -27 -143 -42 -123 -35
-230 -69 -307 -100 -35 -13 -93 -36 -130 -50 -78 -30 -461 -220 -543 -270 -30
-18 -77 -45 -103 -61 -66 -38 -158 -99 -321 -213 -20 -14 -145 -111 -280 -218
-32 -26 -68 -56 -80 -68 -12 -11 -50 -47 -86 -79 -100 -89 -210 -198 -261
-257 -149 -171 -190 -219 -233 -278 -26 -36 -54 -74 -63 -84 -9 -11 -25 -35
-36 -55 -11 -20 -28 -45 -37 -56 -23 -27 -120 -212 -159 -305 -18 -41 -39 -88
-47 -105 -24 -51 -81 -208 -94 -260 -7 -27 -19 -62 -27 -77 -7 -15 -13 -35
-13 -45 0 -10 -9 -40 -19 -68 -23 -60 -45 -144 -76 -288 -13 -59 -28 -122 -33
-140 -6 -18 -15 -68 -22 -112 -6 -44 -16 -102 -21 -130 -53 -289 -87 -988 -61
-1273 66 -714 95 -897 212 -1307 17 -60 35 -123 39 -140 13 -49 62 -198 77
-233 8 -18 14 -38 14 -44 0 -23 133 -374 161 -428 11 -19 19 -42 19 -50 0 -9
6 -24 13 -35 8 -11 49 -96 92 -190 44 -93 89 -186 102 -205 13 -19 23 -38 23
-43 0 -11 162 -249 204 -299 109 -131 140 -166 229 -267 54 -61 102 -111 105
-111 4 0 41 -33 83 -73 42 -39 109 -101 149 -137 40 -35 87 -77 104 -92 17
-15 92 -78 166 -139 74 -61 157 -129 185 -152 27 -23 67 -54 90 -69 22 -15 78
-57 125 -93 94 -71 296 -212 339 -235 15 -8 43 -27 63 -42 19 -16 40 -28 46
-28 6 0 23 -11 39 -24 15 -13 42 -31 58 -40 17 -9 39 -22 50 -29 79 -49 116
-71 250 -143 432 -232 593 -304 925 -413 163 -54 226 -71 355 -101 50 -11 108
-25 130 -30 129 -31 425 -66 728 -85 329 -22 631 -10 1070 39 77 9 143 19 148
22 5 3 67 14 137 24 269 39 617 125 851 211 139 51 357 154 413 196 18 13 37
23 43 23 7 0 20 9 30 20 10 11 41 33 69 50 48 29 80 51 151 103 144 107 477
463 646 692 49 66 98 133 110 149 45 58 227 324 254 371 11 19 48 81 82 137
141 236 318 665 423 1028 48 165 53 187 89 375 35 184 64 562 82 1070 25 695
-20 1152 -186 1910 -63 284 -158 585 -245 770 -16 33 -40 85 -54 115 -44 94
-174 332 -227 415 -96 150 -171 265 -188 290 -12 17 -46 68 -78 115 -31 47
-66 97 -77 112 -12 15 -31 42 -44 60 -68 98 -189 266 -200 279 -11 13 -86 108
-197 254 -130 170 -370 423 -504 531 -107 86 -185 144 -191 144 -4 0 -15 8
-26 18 -29 27 -188 134 -249 168 -16 9 -39 24 -50 33 -80 68 -501 289 -650
341 -112 40 -272 78 -375 90 -91 10 -365 21 -390 15z m1704 -3144 c102 -50
156 -138 156 -256 0 -120 -65 -224 -163 -260 -66 -25 -181 -25 -227 -1 -118
62 -170 143 -170 265 0 93 24 144 98 212 61 56 91 67 181 68 52 1 76 -5 125
-28z m-5656 -171 c37 -10 142 -76 142 -89 0 -5 12 -26 27 -47 25 -36 27 -47
28 -139 0 -91 -2 -104 -27 -146 -52 -88 -181 -150 -284 -135 -102 14 -212 103
-233 188 -16 69 -14 174 5 214 23 47 115 129 166 147 50 18 129 21 176 7z
m4973 -3032 c103 -35 177 -136 186 -252 5 -54 2 -72 -21 -122 -47 -102 -126
-167 -216 -178 -68 -8 -314 -33 -395 -40 -33 -3 -127 -12 -210 -21 -82 -8
-220 -22 -305 -30 -237 -22 -382 -36 -411 -40 -15 -1 -132 -10 -260 -19 -129
-9 -263 -21 -299 -26 -36 -5 -155 -16 -265 -25 -459 -36 -776 -83 -856 -126
-34 -18 -115 -5 -190 30 -53 26 -72 41 -98 81 -64 98 -69 191 -18 291 26 52
43 71 93 105 61 41 166 86 234 100 159 32 576 79 1010 114 412 33 611 50 970
86 923 90 986 95 1051 72z"/>
</g>
</svg>
